<?xml version="1.0" encoding="UTF-8"?>
<svg id="Layer_1" data-name="Layer 1" xmlns="http://www.w3.org/2000/svg" viewBox="0 0 254.73 60">
  <defs>
    <style>
      .cls-1 {
        fill: #979799;
      }

      .cls-1, .cls-2, .cls-3 {
        stroke-width: 0px;
      }

      .cls-2 {
        fill: #0b0204;
      }

      .cls-3 {
        fill: #de3328;
      }
    </style>
  </defs>
  <path class="cls-1" d="m64.62,0l8.66,14.99c-5.18-2.98-11.76-3.2-17.31,0-5.55,3.2-8.65,9.01-8.66,14.99l-8.66-14.99c2.54-4.42,6.25-8.24,10.98-10.97C54.36,1.3,59.53,0,64.62,0m15,55.96c4.73-2.73,8.43-6.56,10.98-10.97l-8.66-14.99c0,5.98-3.11,11.79-8.66,14.99-5.55,3.2-12.13,2.99-17.31,0l8.66,14.99c5.1,0,10.26-1.29,14.99-4.02Z"/>
  <path class="cls-3" d="m44.99,55.96c4.73-2.73,8.43-6.56,10.98-10.97l-8.66-14.99c0,5.98-3.11,11.79-8.66,14.99-8.28,4.78-18.87,1.94-23.65-6.34s-1.94-18.87,6.34-23.65c5.55-3.2,12.13-2.99,17.31,0L29.99,0c-5.1,0-10.26,1.29-14.99,4.02C.66,12.3-4.26,30.64,4.02,44.98c8.28,14.34,26.62,19.26,40.96,10.98"/>
  <path class="cls-2" d="m125.23,15.01c8.28,14.34,3.37,32.68-10.98,40.96-4.73,2.73-9.9,4.03-14.99,4.02l-8.66-14.99c5.18,2.98,11.76,3.2,17.31,0,8.28-4.78,11.12-15.37,6.34-23.65-4.78-8.28-15.37-11.12-23.65-6.34-5.55,3.2-8.65,9.01-8.66,14.99l-8.66-14.99c2.54-4.42,6.25-8.24,10.98-10.97,14.34-8.28,32.68-3.37,40.96,10.98m50.52,20.77h3.18c2.73,0,4.92-.78,6.59-2.33,1.89-1.74,2.84-4.22,2.84-7.44v-4.32c0-3.18-.95-5.64-2.84-7.38-1.7-1.59-3.9-2.39-6.59-2.39h-9.43v39.75h6.25v-15.9Zm0-17.61h3.18c1.06,0,1.84.23,2.33.68.57.57.85,1.52.85,2.84v4.32c0,1.36-.28,2.31-.85,2.84-.49.45-1.27.68-2.33.68h-3.18v-11.36Zm43.84,0v-6.25h-16.47v39.75h16.47v-6.25h-10.22v-11.02h7.04v-6.25h-7.04v-9.99h10.22Zm27.14,12.61l8.01-18.85h-6.76l-6.93,16.13V11.93h-6.25v39.75h6.25v-7.78l2.16-4.94,4.83,12.72h6.7l-8.01-20.9Zm-93.13-13.23h-6.25v-5.62h6.25v5.62Zm-6.25,5.99h6.25v28.14h-6.25v-28.14Z"/>
</svg>